<?xml version="1.0" encoding="UTF-8"?>
<svg version="1.1" xmlns="http://www.w3.org/2000/svg" width="16" height="16">
<path d="M0 0 C5.28 0 10.56 0 16 0 C16 5.28 16 10.56 16 16 C10.72 16 5.44 16 0 16 C0 10.72 0 5.44 0 0 Z " fill="#E8DEFC" transform="translate(0,0)"/>
<path d="M0 0 C0.99 0.495 0.99 0.495 2 1 C2 4.3 2 7.6 2 11 C2.66 10.67 3.32 10.34 4 10 C4 10.99 4 11.98 4 13 C3.01 13.495 3.01 13.495 2 14 C7.445 13.01 7.445 13.01 13 12 C13.33 9.69 13.66 7.38 14 5 C13.01 4.67 12.02 4.34 11 4 C12.65 2.68 14.3 1.36 16 0 C16 5.28 16 10.56 16 16 C10.72 16 5.44 16 0 16 C0 10.72 0 5.44 0 0 Z " fill="#F4F0FD" transform="translate(0,0)"/>
<path d="M0 0 C1.51400391 0.01740234 1.51400391 0.01740234 3.05859375 0.03515625 C4.07050781 0.04417969 5.08242187 0.05320313 6.125 0.0625 C7.29869141 0.07990234 7.29869141 0.07990234 8.49609375 0.09765625 C8.49609375 0.75765625 8.49609375 1.41765625 8.49609375 2.09765625 C5.53944856 3.57597885 2.75379638 3.15798408 -0.50390625 3.09765625 C-0.50390625 3.75765625 -0.50390625 4.41765625 -0.50390625 5.09765625 C0.81609375 5.42765625 2.13609375 5.75765625 3.49609375 6.09765625 C3.16609375 6.75765625 2.83609375 7.41765625 2.49609375 8.09765625 C1.50609375 8.09765625 0.51609375 8.09765625 -0.50390625 8.09765625 C-1.16390625 9.41765625 -1.82390625 10.73765625 -2.50390625 12.09765625 C-2.83390625 12.09765625 -3.16390625 12.09765625 -3.50390625 12.09765625 C-3.53077904 10.28523573 -3.5502434 8.47270392 -3.56640625 6.66015625 C-3.57800781 5.65082031 -3.58960938 4.64148438 -3.6015625 3.6015625 C-3.46988459 0.22534083 -3.37622167 0.13167791 0 0 Z " fill="#925FF6" transform="translate(4.50390625,-0.09765625)"/>
<path d="M0 0 C1.32 0 2.64 0 4 0 C4 2.31 4 4.62 4 7 C1.36 7 -1.28 7 -4 7 C-4 6.34 -4 5.68 -4 5 C-2.02 5 -0.04 5 2 5 C2 4.34 2 3.68 2 3 C1.01 3 0.02 3 -1 3 C-0.67 2.01 -0.34 1.02 0 0 Z " fill="#6D2BEF" transform="translate(10,5)"/>
<path d="M0 0 C0 3.63 0 7.26 0 11 C-0.33 11 -0.66 11 -1 11 C-1.103125 10.21625 -1.20625 9.4325 -1.3125 8.625 C-1.77595022 5.66954819 -1.77595022 5.66954819 -5 4 C-1.125 0 -1.125 0 0 0 Z " fill="#FEFDFE" transform="translate(16,0)"/>
<path d="M0 0 C0.33 0 0.66 0 1 0 C1 1.98 1 3.96 1 6 C2.65 6 4.3 6 6 6 C5.01 6.33 4.02 6.66 3 7 C1.79117904 9.00016466 1.79117904 9.00016466 1 11 C0.67 11 0.34 11 0 11 C0 7.37 0 3.74 0 0 Z " fill="#A67CFA" transform="translate(1,1)"/>
<path d="M0 0 C0.33 0.66 0.66 1.32 1 2 C3.31 2 5.62 2 8 2 C8 2.33 8 2.66 8 3 C6.4221875 3.2165625 6.4221875 3.2165625 4.8125 3.4375 C1.84539451 3.87526966 -1.06794366 4.37804866 -4 5 C-3.67 4.34 -3.34 3.68 -3 3 C-2.34 3 -1.68 3 -1 3 C-0.67 2.01 -0.34 1.02 0 0 Z " fill="#AE89F9" transform="translate(5,10)"/>
</svg>
